<mxfile host="app.diagrams.net" agent="Mozilla/5.0 (Windows NT 10.0; Win64; x64) AppleWebKit/537.36 (KHTML, like Gecko) Chrome/128.0.0.0 Safari/537.36" version="24.7.12">
  <diagram name="Page-1" id="WJgf06Pms1JpyzzCzn3s">
    <mxGraphModel dx="1257" dy="620" grid="1" gridSize="10" guides="1" tooltips="1" connect="1" arrows="1" fold="1" page="1" pageScale="1" pageWidth="850" pageHeight="1100" math="0" shadow="0">
      <root>
        <mxCell id="0" />
        <mxCell id="1" parent="0" />
        <mxCell id="GN1TAPZdaTHv4xHgaOf5-1" value="" style="rounded=0;whiteSpace=wrap;html=1;fillColor=#d5e8d4;strokeColor=#82b366;" vertex="1" parent="1">
          <mxGeometry x="40" y="100.75" width="1140" height="190" as="geometry" />
        </mxCell>
        <mxCell id="GN1TAPZdaTHv4xHgaOf5-7" value="" style="endArrow=classic;startArrow=classic;html=1;rounded=0;" edge="1" parent="1">
          <mxGeometry width="50" height="50" relative="1" as="geometry">
            <mxPoint x="248" y="180" as="sourcePoint" />
            <mxPoint x="317" y="180" as="targetPoint" />
          </mxGeometry>
        </mxCell>
        <mxCell id="GN1TAPZdaTHv4xHgaOf5-8" value="&lt;b&gt;N&lt;/b&gt;" style="text;html=1;align=center;verticalAlign=middle;whiteSpace=wrap;rounded=0;" vertex="1" parent="1">
          <mxGeometry x="267" y="160" width="30" height="20" as="geometry" />
        </mxCell>
        <mxCell id="GN1TAPZdaTHv4xHgaOf5-9" value="&lt;b&gt;N&lt;/b&gt;" style="text;html=1;align=center;verticalAlign=middle;whiteSpace=wrap;rounded=0;" vertex="1" parent="1">
          <mxGeometry x="217" y="210" width="30" height="20" as="geometry" />
        </mxCell>
        <mxCell id="GN1TAPZdaTHv4xHgaOf5-10" value="" style="endArrow=classic;startArrow=classic;html=1;rounded=0;" edge="1" parent="1">
          <mxGeometry width="50" height="50" relative="1" as="geometry">
            <mxPoint x="238" y="190" as="sourcePoint" />
            <mxPoint x="238" y="250" as="targetPoint" />
          </mxGeometry>
        </mxCell>
        <mxCell id="GN1TAPZdaTHv4xHgaOf5-11" value="" style="rounded=0;whiteSpace=wrap;html=1;" vertex="1" parent="1">
          <mxGeometry x="247" y="190" width="70" height="60" as="geometry" />
        </mxCell>
        <mxCell id="GN1TAPZdaTHv4xHgaOf5-12" value="" style="endArrow=classic;startArrow=classic;html=1;rounded=0;" edge="1" parent="1">
          <mxGeometry width="50" height="50" relative="1" as="geometry">
            <mxPoint x="403" y="180" as="sourcePoint" />
            <mxPoint x="510" y="180" as="targetPoint" />
          </mxGeometry>
        </mxCell>
        <mxCell id="GN1TAPZdaTHv4xHgaOf5-13" value="&lt;b&gt;C&lt;/b&gt;" style="text;html=1;align=center;verticalAlign=middle;whiteSpace=wrap;rounded=0;" vertex="1" parent="1">
          <mxGeometry x="441" y="160" width="30" height="20" as="geometry" />
        </mxCell>
        <mxCell id="GN1TAPZdaTHv4xHgaOf5-14" value="&lt;b&gt;X&lt;/b&gt;" style="rounded=0;whiteSpace=wrap;html=1;" vertex="1" parent="1">
          <mxGeometry x="403" y="190" width="107" height="60" as="geometry" />
        </mxCell>
        <mxCell id="GN1TAPZdaTHv4xHgaOf5-15" value="&lt;b&gt;N&lt;/b&gt;" style="text;html=1;align=center;verticalAlign=middle;whiteSpace=wrap;rounded=0;" vertex="1" parent="1">
          <mxGeometry x="373" y="211" width="30" height="20" as="geometry" />
        </mxCell>
        <mxCell id="GN1TAPZdaTHv4xHgaOf5-16" value="" style="endArrow=classic;startArrow=classic;html=1;rounded=0;" edge="1" parent="1">
          <mxGeometry width="50" height="50" relative="1" as="geometry">
            <mxPoint x="397" y="190.06" as="sourcePoint" />
            <mxPoint x="397" y="250" as="targetPoint" />
          </mxGeometry>
        </mxCell>
        <mxCell id="GN1TAPZdaTHv4xHgaOf5-18" value="" style="verticalLabelPosition=bottom;verticalAlign=top;html=1;shape=mxgraph.basic.x;fillColor=#a20025;fontColor=#ffffff;strokeColor=#6F0000;" vertex="1" parent="1">
          <mxGeometry x="360" y="215" width="10" height="10" as="geometry" />
        </mxCell>
        <mxCell id="GN1TAPZdaTHv4xHgaOf5-24" value="&lt;b&gt;GIN Layer&lt;/b&gt;" style="text;html=1;align=center;verticalAlign=middle;whiteSpace=wrap;rounded=0;fillColor=#f5f5f5;fontColor=#333333;strokeColor=#666666;" vertex="1" parent="1">
          <mxGeometry x="470" y="70.75" width="196" height="30" as="geometry" />
        </mxCell>
        <mxCell id="GN1TAPZdaTHv4xHgaOf5-29" value="" style="endArrow=classic;html=1;rounded=0;dashed=1;" edge="1" parent="1">
          <mxGeometry width="50" height="50" relative="1" as="geometry">
            <mxPoint x="516" y="217" as="sourcePoint" />
            <mxPoint x="540" y="218" as="targetPoint" />
          </mxGeometry>
        </mxCell>
        <mxCell id="GN1TAPZdaTHv4xHgaOf5-30" value="" style="shape=cross;whiteSpace=wrap;html=1;strokeColor=#6F0000;align=center;verticalAlign=top;fontFamily=Helvetica;fontSize=12;fontColor=#ffffff;fillColor=#a20025;" vertex="1" parent="1">
          <mxGeometry x="190" y="216" width="14" height="13" as="geometry" />
        </mxCell>
        <mxCell id="GN1TAPZdaTHv4xHgaOf5-31" value="" style="endArrow=classic;startArrow=classic;html=1;rounded=0;entryX=0.75;entryY=1;entryDx=0;entryDy=0;" edge="1" parent="1">
          <mxGeometry width="50" height="50" relative="1" as="geometry">
            <mxPoint x="100" y="180" as="sourcePoint" />
            <mxPoint x="169.5" y="179" as="targetPoint" />
            <Array as="points">
              <mxPoint x="170" y="179" />
            </Array>
          </mxGeometry>
        </mxCell>
        <mxCell id="GN1TAPZdaTHv4xHgaOf5-32" value="&lt;b&gt;N&lt;/b&gt;" style="text;html=1;align=center;verticalAlign=middle;whiteSpace=wrap;rounded=0;" vertex="1" parent="1">
          <mxGeometry x="120" y="160" width="30" height="20" as="geometry" />
        </mxCell>
        <mxCell id="GN1TAPZdaTHv4xHgaOf5-33" value="&lt;b&gt;N&lt;/b&gt;" style="text;html=1;align=center;verticalAlign=middle;whiteSpace=wrap;rounded=0;" vertex="1" parent="1">
          <mxGeometry x="70" y="210" width="30" height="20" as="geometry" />
        </mxCell>
        <mxCell id="GN1TAPZdaTHv4xHgaOf5-34" value="" style="endArrow=classic;startArrow=classic;html=1;rounded=0;" edge="1" parent="1">
          <mxGeometry width="50" height="50" relative="1" as="geometry">
            <mxPoint x="91" y="190" as="sourcePoint" />
            <mxPoint x="91" y="250" as="targetPoint" />
          </mxGeometry>
        </mxCell>
        <mxCell id="GN1TAPZdaTHv4xHgaOf5-35" value="&lt;b&gt;A&lt;/b&gt;" style="rounded=0;whiteSpace=wrap;html=1;" vertex="1" parent="1">
          <mxGeometry x="100" y="190" width="70" height="60" as="geometry" />
        </mxCell>
        <mxCell id="GN1TAPZdaTHv4xHgaOf5-36" value="" style="endArrow=classic;html=1;rounded=0;entryX=0;entryY=0.75;entryDx=0;entryDy=0;" edge="1" parent="1">
          <mxGeometry width="50" height="50" relative="1" as="geometry">
            <mxPoint x="130" y="310" as="sourcePoint" />
            <mxPoint x="130" y="260" as="targetPoint" />
          </mxGeometry>
        </mxCell>
        <mxCell id="GN1TAPZdaTHv4xHgaOf5-39" value="" style="verticalLabelPosition=bottom;verticalAlign=top;html=1;shape=mxgraph.basic.arc;startAngle=0.5779791303773693;endAngle=0.9439704071893045;" vertex="1" parent="1">
          <mxGeometry x="50" y="170" width="100" height="100" as="geometry" />
        </mxCell>
        <mxCell id="GN1TAPZdaTHv4xHgaOf5-40" value="" style="verticalLabelPosition=bottom;verticalAlign=top;html=1;shape=mxgraph.basic.arc;startAngle=0.5779791303773693;endAngle=0.9262081911747834;rotation=-180;" vertex="1" parent="1">
          <mxGeometry x="247" y="162" width="100" height="100" as="geometry" />
        </mxCell>
        <mxCell id="GN1TAPZdaTHv4xHgaOf5-41" value="&lt;b&gt;(1 +&amp;nbsp;&lt;/b&gt;&lt;a style=&quot;text-decoration-line: none; background: none rgb(255, 255, 255); border-radius: 2px; overflow-wrap: break-word; font-family: sans-serif; font-size: 16px; text-align: start; text-wrap: wrap;&quot; title=&quot;Latin epsilon&quot; href=&quot;https://en.wikipedia.org/wiki/Latin_epsilon&quot;&gt;&lt;b&gt;&lt;font color=&quot;#000000&quot;&gt;Ɛ&lt;/font&gt;&lt;/b&gt;&lt;/a&gt;&lt;b&gt;&amp;nbsp;) .&amp;nbsp;&lt;/b&gt;&lt;h3 class=&quot;LC20lb MBeuO DKV0Md&quot; style=&quot;font-weight: 400; margin: 18px 0px 3px; padding: 5px 0px 0px; font-size: 20px; line-height: 1.3; display: inline-block;&quot;&gt;&lt;font color=&quot;#000000&quot;&gt;Ɪ&lt;/font&gt;&lt;/h3&gt;" style="text;html=1;align=center;verticalAlign=middle;resizable=0;points=[];autosize=1;strokeColor=none;fillColor=none;" vertex="1" parent="1">
          <mxGeometry x="237" y="170" width="90" height="70" as="geometry" />
        </mxCell>
        <mxCell id="GN1TAPZdaTHv4xHgaOf5-45" value="" style="rounded=0;whiteSpace=wrap;html=1;" vertex="1" parent="1">
          <mxGeometry x="562" y="190" width="110" height="10" as="geometry" />
        </mxCell>
        <mxCell id="GN1TAPZdaTHv4xHgaOf5-46" value="" style="rounded=0;whiteSpace=wrap;html=1;" vertex="1" parent="1">
          <mxGeometry x="562" y="203" width="110" height="10" as="geometry" />
        </mxCell>
        <mxCell id="GN1TAPZdaTHv4xHgaOf5-47" value="" style="rounded=0;whiteSpace=wrap;html=1;" vertex="1" parent="1">
          <mxGeometry x="562" y="216" width="110" height="10" as="geometry" />
        </mxCell>
        <mxCell id="GN1TAPZdaTHv4xHgaOf5-48" value="" style="rounded=0;whiteSpace=wrap;html=1;" vertex="1" parent="1">
          <mxGeometry x="562" y="228" width="110" height="10" as="geometry" />
        </mxCell>
        <mxCell id="GN1TAPZdaTHv4xHgaOf5-49" value="" style="rounded=0;whiteSpace=wrap;html=1;" vertex="1" parent="1">
          <mxGeometry x="562" y="240" width="110" height="10" as="geometry" />
        </mxCell>
        <mxCell id="GN1TAPZdaTHv4xHgaOf5-50" value="&lt;b&gt;N&lt;/b&gt;" style="text;html=1;align=center;verticalAlign=middle;whiteSpace=wrap;rounded=0;" vertex="1" parent="1">
          <mxGeometry x="532" y="210.94" width="30" height="20" as="geometry" />
        </mxCell>
        <mxCell id="GN1TAPZdaTHv4xHgaOf5-51" value="" style="endArrow=classic;startArrow=classic;html=1;rounded=0;" edge="1" parent="1">
          <mxGeometry width="50" height="50" relative="1" as="geometry">
            <mxPoint x="556" y="190" as="sourcePoint" />
            <mxPoint x="556" y="249.94" as="targetPoint" />
          </mxGeometry>
        </mxCell>
        <mxCell id="GN1TAPZdaTHv4xHgaOf5-52" value="" style="endArrow=classic;startArrow=classic;html=1;rounded=0;" edge="1" parent="1">
          <mxGeometry width="50" height="50" relative="1" as="geometry">
            <mxPoint x="561" y="180" as="sourcePoint" />
            <mxPoint x="668" y="180" as="targetPoint" />
          </mxGeometry>
        </mxCell>
        <mxCell id="GN1TAPZdaTHv4xHgaOf5-53" value="&lt;b&gt;C&lt;/b&gt;" style="text;html=1;align=center;verticalAlign=middle;whiteSpace=wrap;rounded=0;" vertex="1" parent="1">
          <mxGeometry x="599" y="160" width="30" height="20" as="geometry" />
        </mxCell>
        <mxCell id="GN1TAPZdaTHv4xHgaOf5-58" value="" style="rounded=0;whiteSpace=wrap;html=1;rotation=90;" vertex="1" parent="1">
          <mxGeometry x="705" y="200.5" width="110" height="10" as="geometry" />
        </mxCell>
        <mxCell id="GN1TAPZdaTHv4xHgaOf5-60" value="" style="endArrow=classic;startArrow=classic;html=1;rounded=0;" edge="1" parent="1">
          <mxGeometry width="50" height="50" relative="1" as="geometry">
            <mxPoint x="750" y="149.5" as="sourcePoint" />
            <mxPoint x="750" y="260.5" as="targetPoint" />
          </mxGeometry>
        </mxCell>
        <mxCell id="GN1TAPZdaTHv4xHgaOf5-61" value="&lt;b&gt;C&lt;/b&gt;" style="text;html=1;align=center;verticalAlign=middle;whiteSpace=wrap;rounded=0;" vertex="1" parent="1">
          <mxGeometry x="729" y="198" width="30" height="20" as="geometry" />
        </mxCell>
        <mxCell id="GN1TAPZdaTHv4xHgaOf5-62" value="&lt;b&gt;....&lt;/b&gt;" style="text;html=1;align=center;verticalAlign=middle;resizable=0;points=[];autosize=1;strokeColor=none;fillColor=none;" vertex="1" parent="1">
          <mxGeometry x="710" y="188" width="40" height="30" as="geometry" />
        </mxCell>
        <mxCell id="GN1TAPZdaTHv4xHgaOf5-63" value="" style="endArrow=classic;html=1;rounded=0;entryX=0;entryY=0.75;entryDx=0;entryDy=0;" edge="1" parent="1">
          <mxGeometry width="50" height="50" relative="1" as="geometry">
            <mxPoint x="456" y="310" as="sourcePoint" />
            <mxPoint x="456" y="260" as="targetPoint" />
          </mxGeometry>
        </mxCell>
        <mxCell id="GN1TAPZdaTHv4xHgaOf5-64" value="" style="html=1;shadow=0;dashed=0;align=center;verticalAlign=middle;shape=mxgraph.arrows2.jumpInArrow;dy=3.11;dx=17.73;arrowHead=21.52;rotation=30;fillColor=#a20025;fontColor=#ffffff;strokeColor=#6F0000;" vertex="1" parent="1">
          <mxGeometry x="672.23" y="176.32" width="47.01" height="26.16" as="geometry" />
        </mxCell>
        <mxCell id="GN1TAPZdaTHv4xHgaOf5-65" value="&lt;b&gt;MLP&lt;/b&gt;" style="text;html=1;align=center;verticalAlign=middle;resizable=0;points=[];autosize=1;strokeColor=none;fillColor=none;" vertex="1" parent="1">
          <mxGeometry x="835" y="98" width="50" height="30" as="geometry" />
        </mxCell>
        <mxCell id="GN1TAPZdaTHv4xHgaOf5-66" value="" style="endArrow=classic;html=1;rounded=0;entryX=0;entryY=1;entryDx=0;entryDy=0;dashed=1;" edge="1" parent="1">
          <mxGeometry width="50" height="50" relative="1" as="geometry">
            <mxPoint x="984" y="198" as="sourcePoint" />
            <mxPoint x="1004.0000000000001" y="198.39999999999998" as="targetPoint" />
          </mxGeometry>
        </mxCell>
        <mxCell id="GN1TAPZdaTHv4xHgaOf5-79" value="" style="rounded=0;whiteSpace=wrap;html=1;rotation=90;" vertex="1" parent="1">
          <mxGeometry x="920" y="197" width="110" height="12" as="geometry" />
        </mxCell>
        <mxCell id="GN1TAPZdaTHv4xHgaOf5-80" value="" style="endArrow=classic;startArrow=classic;html=1;rounded=0;" edge="1" parent="1">
          <mxGeometry width="50" height="50" relative="1" as="geometry">
            <mxPoint x="964" y="147.5" as="sourcePoint" />
            <mxPoint x="964" y="258.5" as="targetPoint" />
          </mxGeometry>
        </mxCell>
        <mxCell id="GN1TAPZdaTHv4xHgaOf5-82" value="" style="html=1;shadow=0;dashed=0;align=center;verticalAlign=middle;shape=mxgraph.arrows2.jumpInArrow;dy=3.11;dx=17.73;arrowHead=21.52;rotation=30;fillColor=#a20025;fontColor=#ffffff;strokeColor=#6F0000;" vertex="1" parent="1">
          <mxGeometry x="981.47" y="148.5" width="70" height="20" as="geometry" />
        </mxCell>
        <mxCell id="GN1TAPZdaTHv4xHgaOf5-84" value="F" style="text;html=1;align=center;verticalAlign=middle;resizable=0;points=[];autosize=1;strokeColor=none;fillColor=none;" vertex="1" parent="1">
          <mxGeometry x="943.33" y="180.75" width="30" height="30" as="geometry" />
        </mxCell>
        <mxCell id="GN1TAPZdaTHv4xHgaOf5-85" value="" style="rounded=0;whiteSpace=wrap;html=1;" vertex="1" parent="1">
          <mxGeometry x="1048.33" y="182.75" width="110" height="10" as="geometry" />
        </mxCell>
        <mxCell id="GN1TAPZdaTHv4xHgaOf5-86" value="" style="rounded=0;whiteSpace=wrap;html=1;" vertex="1" parent="1">
          <mxGeometry x="1048.33" y="195.75" width="110" height="10" as="geometry" />
        </mxCell>
        <mxCell id="GN1TAPZdaTHv4xHgaOf5-87" value="" style="rounded=0;whiteSpace=wrap;html=1;" vertex="1" parent="1">
          <mxGeometry x="1048.33" y="208.75" width="110" height="10" as="geometry" />
        </mxCell>
        <mxCell id="GN1TAPZdaTHv4xHgaOf5-88" value="" style="rounded=0;whiteSpace=wrap;html=1;" vertex="1" parent="1">
          <mxGeometry x="1048.33" y="220.75" width="110" height="10" as="geometry" />
        </mxCell>
        <mxCell id="GN1TAPZdaTHv4xHgaOf5-89" value="" style="rounded=0;whiteSpace=wrap;html=1;" vertex="1" parent="1">
          <mxGeometry x="1048.33" y="232.75" width="110" height="10" as="geometry" />
        </mxCell>
        <mxCell id="GN1TAPZdaTHv4xHgaOf5-90" value="&lt;b&gt;N&lt;/b&gt;" style="text;html=1;align=center;verticalAlign=middle;whiteSpace=wrap;rounded=0;" vertex="1" parent="1">
          <mxGeometry x="1018.33" y="203.69" width="30" height="20" as="geometry" />
        </mxCell>
        <mxCell id="GN1TAPZdaTHv4xHgaOf5-91" value="" style="endArrow=classic;startArrow=classic;html=1;rounded=0;" edge="1" parent="1">
          <mxGeometry width="50" height="50" relative="1" as="geometry">
            <mxPoint x="1042.33" y="182.75" as="sourcePoint" />
            <mxPoint x="1042.33" y="242.69" as="targetPoint" />
          </mxGeometry>
        </mxCell>
        <mxCell id="GN1TAPZdaTHv4xHgaOf5-92" value="" style="endArrow=classic;startArrow=classic;html=1;rounded=0;" edge="1" parent="1">
          <mxGeometry width="50" height="50" relative="1" as="geometry">
            <mxPoint x="1047.33" y="172.75" as="sourcePoint" />
            <mxPoint x="1154.33" y="172.75" as="targetPoint" />
          </mxGeometry>
        </mxCell>
        <mxCell id="GN1TAPZdaTHv4xHgaOf5-93" value="&lt;b&gt;F&lt;/b&gt;" style="text;html=1;align=center;verticalAlign=middle;whiteSpace=wrap;rounded=0;" vertex="1" parent="1">
          <mxGeometry x="1085.33" y="152.75" width="30" height="20" as="geometry" />
        </mxCell>
        <mxCell id="GN1TAPZdaTHv4xHgaOf5-95" value="" style="endArrow=classic;html=1;rounded=0;entryX=0.32;entryY=0.033;entryDx=0;entryDy=0;entryPerimeter=0;" edge="1" parent="1">
          <mxGeometry width="50" height="50" relative="1" as="geometry">
            <mxPoint x="840" y="70" as="sourcePoint" />
            <mxPoint x="839" y="112.99000000000001" as="targetPoint" />
          </mxGeometry>
        </mxCell>
        <mxCell id="GN1TAPZdaTHv4xHgaOf5-98" value="" style="endArrow=classic;html=1;rounded=0;" edge="1" parent="1">
          <mxGeometry width="50" height="50" relative="1" as="geometry">
            <mxPoint x="1170" y="208" as="sourcePoint" />
            <mxPoint x="1220" y="208" as="targetPoint" />
          </mxGeometry>
        </mxCell>
        <mxCell id="GN1TAPZdaTHv4xHgaOf5-57" value="" style="shape=image;verticalLabelPosition=bottom;labelBackgroundColor=default;verticalAlign=top;aspect=fixed;imageAspect=0;image=https://www.researchgate.net/publication/337961028/figure/fig2/AS:836923862040577@1576549606324/Schematic-diagram-of-multilayer-perceptron.png;container=0;imageBackground=default;imageBorder=default;shadow=0;" vertex="1" parent="1">
          <mxGeometry x="776.66" y="134.5" width="163.34" height="151.91" as="geometry" />
        </mxCell>
      </root>
    </mxGraphModel>
  </diagram>
</mxfile>
